<svg xmlns="http://www.w3.org/2000/svg" width="512" height="512" viewBox="0 0 512 512">
<defs>
<filter id="glow"><feGaussianBlur stdDeviation="6"/><feMerge><feMergeNode/><feMergeNode in="SourceGraphic"/></feMerge></filter>
<linearGradient id="metal" x1="0" x2="1"><stop offset="0" stop-color="#dbeafe"/><stop offset=".5" stop-color="#64748b"/><stop offset="1" stop-color="#f8fafc"/></linearGradient>
<linearGradient id="blueglow" x1="0" y1="0" x2="0" y2="1"><stop offset="0" stop-color="#e0f2fe"/><stop offset=".5" stop-color="#38bdf8"/><stop offset="1" stop-color="#0c4a6e"/></linearGradient>
<linearGradient id="fire" x1="0" y1="0" x2="0" y2="1"><stop offset="0" stop-color="#fff7ed"/><stop offset=".45" stop-color="#fb923c"/><stop offset="1" stop-color="#7f1d1d"/></linearGradient>
</defs>
<rect width="512" height="512" fill="#020617"/><circle cx="0" cy="0" r="1" fill="#93c5fd" opacity="0.3"/><circle cx="73" cy="131" r="2" fill="#93c5fd" opacity="0.42"/><circle cx="146" cy="262" r="3" fill="#93c5fd" opacity="0.54"/><circle cx="219" cy="393" r="1" fill="#93c5fd" opacity="0.6599999999999999"/><circle cx="292" cy="12" r="2" fill="#93c5fd" opacity="0.78"/><circle cx="365" cy="143" r="3" fill="#93c5fd" opacity="0.3"/><circle cx="438" cy="274" r="1" fill="#93c5fd" opacity="0.42"/><circle cx="511" cy="405" r="2" fill="#93c5fd" opacity="0.54"/><circle cx="72" cy="24" r="3" fill="#93c5fd" opacity="0.6599999999999999"/><circle cx="145" cy="155" r="1" fill="#93c5fd" opacity="0.78"/><circle cx="218" cy="286" r="2" fill="#93c5fd" opacity="0.3"/><circle cx="291" cy="417" r="3" fill="#93c5fd" opacity="0.42"/><circle cx="364" cy="36" r="1" fill="#93c5fd" opacity="0.54"/><circle cx="437" cy="167" r="2" fill="#93c5fd" opacity="0.6599999999999999"/><circle cx="510" cy="298" r="3" fill="#93c5fd" opacity="0.78"/><circle cx="71" cy="429" r="1" fill="#93c5fd" opacity="0.3"/><circle cx="144" cy="48" r="2" fill="#93c5fd" opacity="0.42"/><circle cx="217" cy="179" r="3" fill="#93c5fd" opacity="0.54"/><circle cx="290" cy="310" r="1" fill="#93c5fd" opacity="0.6599999999999999"/><circle cx="363" cy="441" r="2" fill="#93c5fd" opacity="0.78"/><circle cx="436" cy="60" r="3" fill="#93c5fd" opacity="0.3"/><circle cx="509" cy="191" r="1" fill="#93c5fd" opacity="0.42"/><circle cx="70" cy="322" r="2" fill="#93c5fd" opacity="0.54"/><circle cx="143" cy="453" r="3" fill="#93c5fd" opacity="0.6599999999999999"/><circle cx="216" cy="72" r="1" fill="#93c5fd" opacity="0.78"/><circle cx="289" cy="203" r="2" fill="#93c5fd" opacity="0.3"/><circle cx="362" cy="334" r="3" fill="#93c5fd" opacity="0.42"/><circle cx="435" cy="465" r="1" fill="#93c5fd" opacity="0.54"/><circle cx="508" cy="84" r="2" fill="#93c5fd" opacity="0.6599999999999999"/><circle cx="69" cy="215" r="3" fill="#93c5fd" opacity="0.78"/><circle cx="142" cy="346" r="1" fill="#93c5fd" opacity="0.3"/><circle cx="215" cy="477" r="2" fill="#93c5fd" opacity="0.42"/><circle cx="288" cy="96" r="3" fill="#93c5fd" opacity="0.54"/><circle cx="361" cy="227" r="1" fill="#93c5fd" opacity="0.6599999999999999"/><circle cx="434" cy="358" r="2" fill="#93c5fd" opacity="0.78"/><circle cx="507" cy="489" r="3" fill="#93c5fd" opacity="0.3"/><circle cx="68" cy="108" r="1" fill="#93c5fd" opacity="0.42"/><circle cx="141" cy="239" r="2" fill="#93c5fd" opacity="0.54"/><circle cx="214" cy="370" r="3" fill="#93c5fd" opacity="0.6599999999999999"/><circle cx="287" cy="501" r="1" fill="#93c5fd" opacity="0.78"/><circle cx="360" cy="120" r="2" fill="#93c5fd" opacity="0.3"/><circle cx="433" cy="251" r="3" fill="#93c5fd" opacity="0.42"/><circle cx="506" cy="382" r="1" fill="#93c5fd" opacity="0.54"/><circle cx="67" cy="1" r="2" fill="#93c5fd" opacity="0.6599999999999999"/><circle cx="140" cy="132" r="3" fill="#93c5fd" opacity="0.78"/><circle cx="213" cy="263" r="1" fill="#93c5fd" opacity="0.3"/><circle cx="286" cy="394" r="2" fill="#93c5fd" opacity="0.42"/><circle cx="359" cy="13" r="3" fill="#93c5fd" opacity="0.54"/><circle cx="432" cy="144" r="1" fill="#93c5fd" opacity="0.6599999999999999"/><circle cx="505" cy="275" r="2" fill="#93c5fd" opacity="0.78"/><circle cx="66" cy="406" r="3" fill="#93c5fd" opacity="0.3"/><circle cx="139" cy="25" r="1" fill="#93c5fd" opacity="0.42"/><circle cx="212" cy="156" r="2" fill="#93c5fd" opacity="0.54"/><circle cx="285" cy="287" r="3" fill="#93c5fd" opacity="0.6599999999999999"/><circle cx="358" cy="418" r="1" fill="#93c5fd" opacity="0.78"/><circle cx="431" cy="37" r="2" fill="#93c5fd" opacity="0.3"/><circle cx="504" cy="168" r="3" fill="#93c5fd" opacity="0.42"/><circle cx="65" cy="299" r="1" fill="#93c5fd" opacity="0.54"/><circle cx="138" cy="430" r="2" fill="#93c5fd" opacity="0.6599999999999999"/><circle cx="211" cy="49" r="3" fill="#93c5fd" opacity="0.78"/><circle cx="284" cy="180" r="1" fill="#93c5fd" opacity="0.3"/><circle cx="357" cy="311" r="2" fill="#93c5fd" opacity="0.42"/><circle cx="430" cy="442" r="3" fill="#93c5fd" opacity="0.54"/><circle cx="503" cy="61" r="1" fill="#93c5fd" opacity="0.6599999999999999"/><circle cx="64" cy="192" r="2" fill="#93c5fd" opacity="0.78"/><circle cx="137" cy="323" r="3" fill="#93c5fd" opacity="0.3"/><circle cx="210" cy="454" r="1" fill="#93c5fd" opacity="0.42"/><circle cx="283" cy="73" r="2" fill="#93c5fd" opacity="0.54"/><circle cx="356" cy="204" r="3" fill="#93c5fd" opacity="0.6599999999999999"/><circle cx="429" cy="335" r="1" fill="#93c5fd" opacity="0.78"/><circle cx="502" cy="466" r="2" fill="#93c5fd" opacity="0.3"/><circle cx="63" cy="85" r="3" fill="#93c5fd" opacity="0.42"/><circle cx="136" cy="216" r="1" fill="#93c5fd" opacity="0.54"/><circle cx="209" cy="347" r="2" fill="#93c5fd" opacity="0.6599999999999999"/><circle cx="282" cy="478" r="3" fill="#93c5fd" opacity="0.78"/><circle cx="355" cy="97" r="1" fill="#93c5fd" opacity="0.3"/><circle cx="428" cy="228" r="2" fill="#93c5fd" opacity="0.42"/><circle cx="501" cy="359" r="3" fill="#93c5fd" opacity="0.54"/><circle cx="62" cy="490" r="1" fill="#93c5fd" opacity="0.6599999999999999"/><circle cx="135" cy="109" r="2" fill="#93c5fd" opacity="0.78"/><circle cx="160" cy="280" r="80" fill="#2563eb" opacity=".22" filter="url(#glow)"/>
</svg>