<svg xmlns="http://www.w3.org/2000/svg" width="512" height="512" viewBox="0 0 512 512">
<defs>
<filter id="glow"><feGaussianBlur stdDeviation="6"/><feMerge><feMergeNode/><feMergeNode in="SourceGraphic"/></feMerge></filter>
<linearGradient id="metal" x1="0" x2="1"><stop offset="0" stop-color="#dbeafe"/><stop offset=".5" stop-color="#64748b"/><stop offset="1" stop-color="#f8fafc"/></linearGradient>
<linearGradient id="blueglow" x1="0" y1="0" x2="0" y2="1"><stop offset="0" stop-color="#e0f2fe"/><stop offset=".5" stop-color="#38bdf8"/><stop offset="1" stop-color="#0c4a6e"/></linearGradient>
<linearGradient id="fire" x1="0" y1="0" x2="0" y2="1"><stop offset="0" stop-color="#fff7ed"/><stop offset=".45" stop-color="#fb923c"/><stop offset="1" stop-color="#7f1d1d"/></linearGradient>
</defs>
<path d="M256 256 L366.0 256.0" stroke="#fb923c" stroke-width="4"/><path d="M256 256 L351.27739038460095 310.97471129074125" stroke="#fb923c" stroke-width="4"/><path d="M256 256 L311.0505657909026 351.23358234415787" stroke="#fb923c" stroke-width="4"/><path d="M256 256 L256.08759593818064 365.9999651225018" stroke="#fb923c" stroke-width="4"/><path d="M256 256 L201.10117807088182 351.32113800618924" stroke="#fb923c" stroke-width="4"/><path d="M256 256 L160.81028608735963 311.1263853815002" stroke="#fb923c" stroke-width="4"/><path d="M256 256 L146.00013950997067 256.17519182081355" stroke="#fb923c" stroke-width="4"/><path d="M256 256 L160.63517481881917 201.17710224584238" stroke="#fb923c" stroke-width="4"/><path d="M256 256 L200.79782998554595 160.85421488213308" stroke="#fb923c" stroke-width="4"/><path d="M256 256 L255.73721240764903 146.00031389735102" stroke="#fb923c" stroke-width="4"/><path d="M256 256 L310.74693881400583 160.5915481181279" stroke="#fb923c" stroke-width="4"/><path d="M256 256 L351.10179598769446 200.7220803582937" stroke="#fb923c" stroke-width="4"/><circle cx="256" cy="256" r="80" fill="url(#fire)" filter="url(#glow)"/><circle cx="256" cy="256" r="36.0" fill="#fff7ed"/>
</svg>