<svg xmlns="http://www.w3.org/2000/svg" width="512" height="512" viewBox="0 0 512 512">
<defs>
<filter id="glow"><feGaussianBlur stdDeviation="6"/><feMerge><feMergeNode/><feMergeNode in="SourceGraphic"/></feMerge></filter>
<linearGradient id="metal" x1="0" x2="1"><stop offset="0" stop-color="#dbeafe"/><stop offset=".5" stop-color="#64748b"/><stop offset="1" stop-color="#f8fafc"/></linearGradient>
<linearGradient id="blueglow" x1="0" y1="0" x2="0" y2="1"><stop offset="0" stop-color="#e0f2fe"/><stop offset=".5" stop-color="#38bdf8"/><stop offset="1" stop-color="#0c4a6e"/></linearGradient>
<linearGradient id="fire" x1="0" y1="0" x2="0" y2="1"><stop offset="0" stop-color="#fff7ed"/><stop offset=".45" stop-color="#fb923c"/><stop offset="1" stop-color="#7f1d1d"/></linearGradient>
</defs>
<path d="M256 256 L466.0 256.0" stroke="#fb923c" stroke-width="4"/><path d="M256 256 L459.90393711851164 306.23130923607374" stroke="#fb923c" stroke-width="4"/><path d="M256 256 L441.96967211838034 353.5463020938371" stroke="#fb923c" stroke-width="4"/><path d="M256 256 L413.23842792507355 395.19797693807" stroke="#fb923c" stroke-width="4"/><path d="M256 256 L375.3782756935036 428.76813158810813" stroke="#fb923c" stroke-width="4"/><path d="M256 256 L330.5872903637312 452.30775867549517" stroke="#fb923c" stroke-width="4"/><path d="M256 256 L281.46593539379563 464.45020061040725" stroke="#fb923c" stroke-width="4"/><path d="M256 256 L230.86608572389338 464.49049463503445" stroke="#fb923c" stroke-width="4"/><path d="M256 256 L181.72545435765858 452.4263013693017" stroke="#fb923c" stroke-width="4"/><path d="M256 256 L136.89703537932564 428.9580406299932" stroke="#fb923c" stroke-width="4"/><path d="M256 256 L98.98346556003378 395.4482266379279" stroke="#fb923c" stroke-width="4"/><path d="M256 256 L70.1859211443556 353.842363519226" stroke="#fb923c" stroke-width="4"/><path d="M256 256 L52.176322528390216 306.5559937292225" stroke="#fb923c" stroke-width="4"/><path d="M256 256 L46.000266337216715 256.33445711246225" stroke="#fb923c" stroke-width="4"/><path d="M256 256 L52.01632044608263 206.09350267104736" stroke="#fb923c" stroke-width="4"/><path d="M256 256 L69.87520633931106 158.75000676212895" stroke="#fb923c" stroke-width="4"/><path d="M256 256 L98.54007743215482 117.05262584370945" stroke="#fb923c" stroke-width="4"/><path d="M256 256 L136.3467160420261 83.42221568790359" stroke="#fb923c" stroke-width="4"/><path d="M256 256 L181.10015410889145 59.81128196175962" stroke="#fb923c" stroke-width="4"/><path d="M256 256 L230.2021080840045 47.590622157517544" stroke="#fb923c" stroke-width="4"/><path d="M256 256 L280.80182940511514 47.46974018584362" stroke="#fb923c" stroke-width="4"/><path d="M256 256 L329.9616125202301 59.45565418102879" stroke="#fb923c" stroke-width="4"/><path d="M256 256 L374.8273514378251 82.85248904396107" stroke="#fb923c" stroke-width="4"/><path d="M256 256 L412.79424267536587 116.30187737890506" stroke="#fb923c" stroke-width="4"/><path d="M256 256 L441.6580142671506 157.86182323693544" stroke="#fb923c" stroke-width="4"/><path d="M256 256 L459.7429008167941 205.1194500151777" stroke="#fb923c" stroke-width="4"/><circle cx="256" cy="256" r="180" fill="url(#fire)" filter="url(#glow)"/><circle cx="256" cy="256" r="81.0" fill="#fff7ed"/>
</svg>