<svg xmlns="http://www.w3.org/2000/svg" width="512" height="512" viewBox="0 0 512 512">
<defs>
<filter id="glow"><feGaussianBlur stdDeviation="6"/><feMerge><feMergeNode/><feMergeNode in="SourceGraphic"/></feMerge></filter>
<linearGradient id="metal" x1="0" x2="1"><stop offset="0" stop-color="#dbeafe"/><stop offset=".5" stop-color="#64748b"/><stop offset="1" stop-color="#f8fafc"/></linearGradient>
<linearGradient id="blueglow" x1="0" y1="0" x2="0" y2="1"><stop offset="0" stop-color="#e0f2fe"/><stop offset=".5" stop-color="#38bdf8"/><stop offset="1" stop-color="#0c4a6e"/></linearGradient>
<linearGradient id="fire" x1="0" y1="0" x2="0" y2="1"><stop offset="0" stop-color="#fff7ed"/><stop offset=".45" stop-color="#fb923c"/><stop offset="1" stop-color="#7f1d1d"/></linearGradient>
</defs>
<path d="M256 256 L416.0 256.0" stroke="#fb923c" stroke-width="4"/><path d="M256 256 L406.3605008757095 310.69661576739253" stroke="#fb923c" stroke-width="4"/><path d="M256 256 L378.6035027949278 358.8026317873921" stroke="#fb923c" stroke-width="4"/><path d="M256 256 L336.07355024131294 394.5215743187751" stroke="#fb923c" stroke-width="4"/><path d="M256 256 L283.8952362198234 413.54953442089334" stroke="#fb923c" stroke-width="4"/><path d="M256 256 L228.35572088442308 413.59376203447925" stroke="#fb923c" stroke-width="4"/><path d="M256 256 L176.14716810310082 394.64892800900253" stroke="#fb923c" stroke-width="4"/><path d="M256 256 L133.56038161105707 358.9977662319433" stroke="#fb923c" stroke-width="4"/><path d="M256 256 L105.72680254699685 310.9360184874252" stroke="#fb923c" stroke-width="4"/><path d="M256 256 L96.00020292359369 256.2548244666379" stroke="#fb923c" stroke-width="4"/><path d="M256 256 L105.55257709774904 201.54292569306304" stroke="#fb923c" stroke-width="4"/><path d="M256 256 L133.2329237883796 153.3927634206525" stroke="#fb923c" stroke-width="4"/><path d="M256 256 L175.70593452443046 117.6061307376481" stroke="#fb923c" stroke-width="4"/><path d="M256 256 L227.8538774334499 98.49509282416392" stroke="#fb923c" stroke-width="4"/><path d="M256 256 L283.39325189037464 98.36241009559146" stroke="#fb923c" stroke-width="4"/><path d="M256 256 L335.6319110021903 117.22406999000421" stroke="#fb923c" stroke-width="4"/><path d="M256 256 L378.27542340936594 152.80736058196652" stroke="#fb923c" stroke-width="4"/><path d="M256 256 L406.1855128555811 200.82471814022074" stroke="#fb923c" stroke-width="4"/><circle cx="256" cy="256" r="130" fill="url(#fire)" filter="url(#glow)"/><circle cx="256" cy="256" r="58.5" fill="#fff7ed"/>
</svg>