<svg xmlns="http://www.w3.org/2000/svg" width="512" height="512" viewBox="0 0 512 512">
<defs>
<filter id="glow"><feGaussianBlur stdDeviation="6"/><feMerge><feMergeNode/><feMergeNode in="SourceGraphic"/></feMerge></filter>
<linearGradient id="metal" x1="0" x2="1"><stop offset="0" stop-color="#dbeafe"/><stop offset=".5" stop-color="#64748b"/><stop offset="1" stop-color="#f8fafc"/></linearGradient>
<linearGradient id="blueglow" x1="0" y1="0" x2="0" y2="1"><stop offset="0" stop-color="#e0f2fe"/><stop offset=".5" stop-color="#38bdf8"/><stop offset="1" stop-color="#0c4a6e"/></linearGradient>
<linearGradient id="fire" x1="0" y1="0" x2="0" y2="1"><stop offset="0" stop-color="#fff7ed"/><stop offset=".45" stop-color="#fb923c"/><stop offset="1" stop-color="#7f1d1d"/></linearGradient>
</defs>
<path d="M256 256 L506.0 256.0" stroke="#fb923c" stroke-width="4"/><path d="M256 256 L502.20577841977433 299.3902601134517" stroke="#fb923c" stroke-width="4"/><path d="M256 256 L490.93828261829606 341.46346213655085" stroke="#fb923c" stroke-width="4"/><path d="M256 256 L472.5395236013658 380.9425256607756" stroke="#fb923c" stroke-width="4"/><path d="M256 256 L447.5679731170747 416.6291121678002" stroke="#fb923c" stroke-width="4"/><path d="M256 256 L416.78161193133644 447.43999912442837" stroke="#fb923c" stroke-width="4"/><path d="M256 256 L381.11492225205143 472.4399598730861" stroke="#fb923c" stroke-width="4"/><path d="M256 256 L341.6505226686305 490.8701512891547" stroke="#fb923c" stroke-width="4"/><path d="M256 256 L299.58630659347403 502.1711475326458" stroke="#fb923c" stroke-width="4"/><path d="M256 256 L256.1990816776833 505.9999207329587" stroke="#fb923c" stroke-width="4"/><path d="M256 256 L212.80581388191104 502.24025317887384" stroke="#fb923c" stroke-width="4"/><path d="M256 256 L170.72365259101508 491.00626496453685" stroke="#fb923c" stroke-width="4"/><path d="M256 256 L131.22995016109505 472.63895001406644" stroke="#fb923c" stroke-width="4"/><path d="M256 256 L95.52348945649183 447.6958256295095" stroke="#fb923c" stroke-width="4"/><path d="M256 256 L64.68809626727668 416.9340097374113" stroke="#fb923c" stroke-width="4"/><path d="M256 256 L39.65974110763554 381.2872395034095" stroke="#fb923c" stroke-width="4"/><path d="M256 256 L21.198128979682565 341.8375288866019" stroke="#fb923c" stroke-width="4"/><path d="M256 256 L9.863639460550871 299.7823254338359" stroke="#fb923c" stroke-width="4"/><path d="M256 256 L6.000317068115123 256.39816322912174" stroke="#fb923c" stroke-width="4"/><path d="M256 256 L9.725428211917261 213.00191526827638" stroke="#fb923c" stroke-width="4"/><path d="M256 256 L20.925901715232868 170.910821395411" stroke="#fb923c" stroke-width="4"/><path d="M256 256 L39.26176095186173 131.4025051041873" stroke="#fb923c" stroke-width="4"/><path d="M256 256 L64.17644341934314 95.67619284476953" stroke="#fb923c" stroke-width="4"/><path d="M256 256 L94.91369451061632 64.81631297681028" stroke="#fb923c" stroke-width="4"/><path d="M256 256 L130.54052269442263 39.75957927757514" stroke="#fb923c" stroke-width="4"/><path d="M256 256 L169.97551932812218 21.266558144916814" stroke="#fb923c" stroke-width="4"/><path d="M256 256 L212.02168348976548 9.898582537756141" stroke="#fb923c" stroke-width="4"/><path d="M256 256 L255.40275547192962 6.000713403070506" stroke="#fb923c" stroke-width="4"/><path d="M256 256 L298.80195607871036 9.691265774361653" stroke="#fb923c" stroke-width="4"/><path d="M256 256 L340.9019558420536 20.85821746402877" stroke="#fb923c" stroke-width="4"/><path d="M256 256 L380.4248609409223 39.16260935938158" stroke="#fb923c" stroke-width="4"/><path d="M256 256 L416.17100209980197 64.04883411048209" stroke="#fb923c" stroke-width="4"/><path d="M256 256 L447.05534907713434 94.7615009093227" stroke="#fb923c" stroke-width="4"/><path d="M256 256 L472.14044542657837 130.3683644506675" stroke="#fb923c" stroke-width="4"/><path d="M256 256 L490.6648638368455 169.78862209409493" stroke="#fb923c" stroke-width="4"/><path d="M256 256 L502.06631832318874 211.82572030161515" stroke="#fb923c" stroke-width="4"/><circle cx="256" cy="256" r="220" fill="url(#fire)" filter="url(#glow)"/><circle cx="256" cy="256" r="99.0" fill="#fff7ed"/>
</svg>